<?xml version="1.0" encoding="UTF-8"?><svg id="Layer_1" xmlns="http://www.w3.org/2000/svg" viewBox="0 0 121.47 36.16"><path d="M12.61,0L7.87,8.85v5.33h-2.96v-5.33L0,0H3.49l2.94,6.17L9.25,0h3.36Z"/><path d="M22.69,8.71V0h3.01V8.71c0,1.51-.23,2.68-.7,3.52-.87,1.54-2.54,2.31-4.99,2.31s-4.12-.77-5-2.31c-.47-.84-.7-2.01-.7-3.52V0h3.01V8.71c0,.97,.12,1.69,.35,2.13,.36,.79,1.14,1.19,2.35,1.19s1.98-.4,2.34-1.19c.23-.45,.35-1.16,.35-2.13Z"/><path d="M41.08,14.18h-3.81l-4.38-6.19-1.41,1.45v4.74h-2.91V0h2.91V5.84L36.96,0h3.83l-5.81,5.84,6.11,8.34Z"/><path d="M13.7,21.59l-4.74,8.85v5.33h-2.96v-5.33L1.09,21.59h3.49l2.94,6.17,2.82-6.17h3.36Z"/><path d="M21.88,32.85h-5.22l-.98,2.91h-3.1l5.06-14.18h3.35l5.02,14.18h-3.21l-.91-2.91Zm-.83-2.44l-1.77-5.58-1.83,5.58h3.6Z"/><path d="M30.52,35.76h-2.76v-14.18h4.31l2.58,11.15,2.56-11.15h4.26v14.18h-2.76v-9.59c0-.28,0-.66,0-1.16s0-.88,0-1.15l-2.68,11.9h-2.88l-2.66-11.9c0,.27,0,.65,0,1.15s0,.88,0,1.16v9.59Z"/><path d="M67.71,35.76h-2.76v-14.18h4.31l2.58,11.15,2.56-11.15h4.26v14.18h-2.76v-9.59c0-.28,0-.66,0-1.16s0-.88,0-1.15l-2.68,11.9h-2.88l-2.66-11.9c0,.27,0,.65,0,1.15s0,.88,0,1.16v9.59Z"/><path d="M87.67,36.16c-2.03,0-3.57-.55-4.64-1.65-1.44-1.35-2.15-3.3-2.15-5.85s.72-4.55,2.15-5.85c1.07-1.1,2.62-1.65,4.64-1.65s3.57,.55,4.64,1.65c1.43,1.3,2.14,3.25,2.14,5.85s-.71,4.49-2.14,5.85c-1.07,1.1-2.62,1.65-4.64,1.65Zm2.8-3.81c.69-.87,1.03-2.1,1.03-3.69s-.34-2.82-1.03-3.69-1.62-1.3-2.79-1.3-2.11,.43-2.81,1.3-1.05,2.1-1.05,3.69,.35,2.83,1.05,3.69,1.63,1.3,2.81,1.3,2.11-.43,2.8-1.3Z"/><path d="M107.02,21.59v2.51h-4.24v11.67h-2.98v-11.67h-4.26v-2.51h11.48Z"/><path d="M114.68,36.16c-2.03,0-3.57-.55-4.64-1.65-1.44-1.35-2.15-3.3-2.15-5.85s.72-4.55,2.15-5.85c1.07-1.1,2.62-1.65,4.64-1.65s3.57,.55,4.64,1.65c1.43,1.3,2.14,3.25,2.14,5.85s-.71,4.49-2.14,5.85c-1.07,1.1-2.62,1.65-4.64,1.65Zm2.8-3.81c.69-.87,1.03-2.1,1.03-3.69s-.34-2.82-1.03-3.69-1.62-1.3-2.79-1.3-2.11,.43-2.81,1.3-1.05,2.1-1.05,3.69,.35,2.83,1.05,3.69,1.63,1.3,2.81,1.3,2.11-.43,2.8-1.3Z"/><polygon points="54.49 .25 51.14 .25 46.09 14.43 49.18 14.43 50.16 11.51 51.01 8.91 51.01 8.91 52.79 3.49 54.56 9.07 55.39 11.51 56.3 14.43 59.51 14.43 54.49 .25"/><polygon points="55.04 21.59 51.69 21.59 46.63 35.76 49.73 35.76 50.71 32.85 51.56 30.25 51.56 30.25 53.34 24.83 55.11 30.41 55.93 32.85 56.85 35.76 60.06 35.76 55.04 21.59"/></svg>